<?xml version="1.0" encoding="UTF-8" standalone="no"?>
<!-- Created with Inkscape (http://www.inkscape.org/) -->

<svg
   xmlns:dc="http://purl.org/dc/elements/1.1/"
   xmlns:cc="http://creativecommons.org/ns#"
   xmlns:rdf="http://www.w3.org/1999/02/22-rdf-syntax-ns#"
   xmlns:svg="http://www.w3.org/2000/svg"
   xmlns="http://www.w3.org/2000/svg"
   xmlns:sodipodi="http://sodipodi.sourceforge.net/DTD/sodipodi-0.dtd"
   xmlns:inkscape="http://www.inkscape.org/namespaces/inkscape"
   width="100mm"
   height="70mm"
   viewBox="0 0 100 70"
   version="1.1"
   id="svg8"
   inkscape:version="0.92.5 (2060ec1f9f, 2020-04-08)"
   sodipodi:docname="steak.svg"
   inkscape:export-filename="/works/TALKS/21-LETNI-SKOLA/TALK/media/steak/steak.png"
   inkscape:export-xdpi="304.79999"
   inkscape:export-ydpi="304.79999">
  <defs
     id="defs2">
    <marker
       inkscape:stockid="StopM"
       orient="auto"
       refY="0.0"
       refX="0.0"
       id="marker1236"
       style="overflow:visible"
       inkscape:isstock="true">
      <path
         id="path1234"
         d="M 0.0,5.65 L 0.0,-5.65"
         style="fill:none;fill-opacity:0.75;fill-rule:evenodd;stroke:#000000;stroke-width:1pt;stroke-opacity:1"
         transform="scale(0.4)" />
    </marker>
    <marker
       inkscape:stockid="StopM"
       orient="auto"
       refY="0.0"
       refX="0.0"
       id="StopM"
       style="overflow:visible"
       inkscape:isstock="true">
      <path
         id="path1124"
         d="M 0.0,5.65 L 0.0,-5.65"
         style="fill:none;fill-opacity:0.75;fill-rule:evenodd;stroke:#000000;stroke-width:1pt;stroke-opacity:1"
         transform="scale(0.4)" />
    </marker>
  </defs>
  <sodipodi:namedview
     id="base"
     pagecolor="#ffffff"
     bordercolor="#666666"
     borderopacity="1.0"
     inkscape:pageopacity="0.0"
     inkscape:pageshadow="2"
     inkscape:zoom="1.4"
     inkscape:cx="126.80606"
     inkscape:cy="125.57959"
     inkscape:document-units="mm"
     inkscape:current-layer="layer1"
     showgrid="false"
     inkscape:window-width="1920"
     inkscape:window-height="1052"
     inkscape:window-x="0"
     inkscape:window-y="1"
     inkscape:window-maximized="1" />
  <metadata
     id="metadata5">
    <rdf:RDF>
      <cc:Work
         rdf:about="">
        <dc:format>image/svg+xml</dc:format>
        <dc:type
           rdf:resource="http://purl.org/dc/dcmitype/StillImage" />
        <dc:title />
      </cc:Work>
    </rdf:RDF>
  </metadata>
  <g
     inkscape:label="Layer 1"
     inkscape:groupmode="layer"
     id="layer1"
     transform="translate(0,-227)">
    <path
       style="opacity:1;fill:#000000;fill-opacity:1;stroke:none;stroke-width:0.5;stroke-linecap:butt;stroke-linejoin:miter;stroke-miterlimit:4;stroke-dasharray:none;stroke-dashoffset:0;stroke-opacity:1"
       d="m 66.488281,228.15234 c -9.900405,0.31093 -19.576702,2.61722 -29.382859,3.72906 -3.408024,0.61198 -6.594354,2.35762 -10.009659,2.41588 -10.610581,2.99343 -19.1817028,11.40956 -24.1296338,21.06331 -3.39183681,6.65101 -2.90722902,15.30748 2.4537927,20.81129 6.9882151,8.10075 19.2458461,8.66557 28.5875191,4.77775 8.916497,-3.22434 17.202804,-7.94393 24.59266,-13.88538 7.960601,-6.07083 16.247074,-12.08272 26.046172,-14.77096 5.145046,-2.19968 10.491053,-5.35524 13.441618,-10.28157 1.842502,-4.64173 -2.596604,-8.91473 -6.737849,-10.13973 -7.84353,-3.27546 -16.477326,-3.65646 -24.861761,-3.71965 z m 0.976563,2.00196 c 9.473097,0.28141 19.78048,0.49507 27.669922,6.23828 3.105281,3.31685 -0.210096,7.9736 -3.5625,9.54687 -6.098946,5.54088 -14.99802,5.81601 -21.582208,10.66686 -10.866362,6.6619 -20.093013,16.07044 -32.165839,20.59486 -8.718408,4.44775 -20.40428,6.35217 -28.6289065,-0.21679 -6.7026046,-4.68273 -8.23629489,-14.57061 -4.0484998,-21.42641 4.7583597,-8.65679 12.4508313,-16.48469 22.1754533,-19.15563 1.995865,-0.0424 3.892102,-0.37512 5.701172,-1.34765 7.870992,-2.37018 16.286353,-2.41195 24.34375,-4.16797 3.365667,-0.4641 6.707388,-0.75842 10.097656,-0.73242 z"
       id="path817"
       inkscape:connector-curvature="0" />
    <path
       style="opacity:1;fill:#000000;fill-opacity:1;stroke:none;stroke-width:0.5;stroke-linecap:butt;stroke-linejoin:miter;stroke-miterlimit:4;stroke-dasharray:none;stroke-dashoffset:0;stroke-opacity:1"
       d="m 73.498047,236.21484 c -2.77747,0.55659 -6.024865,0.0823 -8.427735,2.12305 -2.715982,1.75112 -1.686237,6.77374 1.837891,6.55664 3.555643,0.63093 6.664535,-2.00508 10.240235,-1.06445 2.614835,0.0118 7.073088,-1.02872 6.574218,-4.45313 -1.826505,-3.4364 -6.940011,-2.95849 -10.224609,-3.16211 z m 1.787109,2.01368 c 2.024618,0.36921 5.217107,-0.0864 6.486328,1.92968 -2.692167,3.04097 -7.305534,0.49888 -10.646201,2.225 -1.674216,0.65568 -6.384859,1.52927 -5.470986,-1.64882 2.208454,-3.13971 6.516238,-1.70778 9.630859,-2.50586 z"
       id="path819"
       inkscape:connector-curvature="0" />
    <path
       style="opacity:1;fill:#000000;fill-opacity:1;stroke:none;stroke-width:0.5;stroke-linecap:butt;stroke-linejoin:miter;stroke-miterlimit:4;stroke-dasharray:none;stroke-dashoffset:0;stroke-opacity:1"
       d="m 97.568359,240.15039 c -2.204278,0.90489 -0.389727,4.08568 -0.355468,5.77344 2.099936,6.41879 -3.881067,11.86181 -9.427401,13.81608 -9.457511,4.4868 -19.101208,9.35542 -26.864562,16.60775 -7.844327,7.12749 -16.503102,14.41466 -27.411162,15.96289 -6.739995,1.1631 -13.740915,2.1794 -20.5625,0.98047 -5.2388731,-4.35352 -6.1418222,-11.54363 -8.9885511,-17.40406 -1.3764701,-3.67188 -1.7591169,-7.58055 -1.320043,-11.48071 -2.27982462,-1.15754 -2.35056048,2.3058 -2.16796878,3.7168 0.28900107,7.60213 4.13233438,14.46881 6.88671878,21.41601 1.1396238,2.34529 3.0523011,4.51081 5.3164061,5.81641 9.439432,1.23562 19.118689,-0.17343 28.19336,-2.8418 14.662727,-5.3318 23.504328,-19.50318 37.599066,-25.81846 5.757549,-3.57372 12.687307,-5.2888 17.713434,-9.96669 3.383059,-3.10908 4.028042,-7.95884 2.831784,-12.22328 -0.672957,-1.25994 0.403582,-4.43084 -1.443113,-4.35485 z"
       id="path821"
       inkscape:connector-curvature="0" />
    <path
       style="opacity:1;fill:#000000;fill-opacity:1;stroke:none;stroke-width:0.5;stroke-linecap:butt;stroke-linejoin:miter;stroke-miterlimit:4;stroke-dasharray:none;stroke-dashoffset:0;stroke-opacity:1"
       d="m 70.162109,238.29102 c -1.434324,0.35307 -3.959838,1.00292 -3.083984,3.05078 1.256922,1.87325 6.042596,1.3335 5.109375,-1.50196 -0.261861,-0.86977 -1.094764,-1.5798 -2.025391,-1.54882 z"
       id="path823"
       inkscape:connector-curvature="0" />
    <path
       style="opacity:1;fill:#000000;fill-opacity:1;stroke:none;stroke-width:0.5;stroke-linecap:butt;stroke-linejoin:miter;stroke-miterlimit:4;stroke-dasharray:none;stroke-dashoffset:0;stroke-opacity:1"
       d="m 70.710938,230.94727 c -7.110756,0.6677 -15.146612,0.42939 -20.744141,5.66211 -5.405514,4.74564 -5.532706,12.51683 -8.453125,18.60351 -2.57767,2.84934 -6.836379,0.36274 -9.929031,-0.0955 -7.318991,-2.21947 -15.064707,-3.26557 -22.6237035,-3.75413 -3.6806698,1.76148 -4.7188352,6.26615 -5.6503906,9.91992 -0.8836511,8.82055 6.8557051,17.25122 15.7541201,17.07249 9.030611,0.97265 17.841301,-3.38057 23.726349,-10.06663 3.835083,-3.87482 5.553048,-10.59553 11.667968,-11.69922 5.72947,-2.2187 12.129833,-0.4255 17.708985,-3.16992 6.447131,-3.09279 15.142743,-2.77199 19.542969,-9.26367 2.460952,-3.87414 0.01753,-9.43107 -4.463306,-10.38851 -5.212342,-2.23362 -10.939734,-2.69406 -16.536694,-2.82047 z m 1.029296,2.0332 c 5.965313,0.3556 12.616845,0.6434 17.609375,4.3125 3.119781,2.99034 0.220296,7.60865 -3.02539,9.09765 -4.867414,2.78952 -10.717568,2.81488 -15.687411,5.48373 -5.565531,2.16956 -11.798171,0.64226 -17.408292,2.99479 -5.635925,1.3792 -8.071372,7.1519 -11.217152,11.33612 -5.644668,6.7006 -14.350271,11.22373 -23.112926,10.12091 -8.9875345,0.1806 -16.376679,-9.90599 -12.6054692,-18.28125 0.9533596,-2.14289 2.0802502,-5.55125 5.0800782,-4.50781 8.470064,0.54583 16.637517,2.62565 24.779297,4.76758 3.173151,0.70199 7.309282,-0.28131 7.99414,-3.95117 2.229655,-6.31863 2.972664,-14.35377 9.50586,-17.91211 5.150866,-3.38945 11.679062,-2.73867 17.515421,-3.49526 l 0.528218,0.0317 z"
       id="path825"
       inkscape:connector-curvature="0" />
    <path
       style="opacity:1;fill:#000000;fill-opacity:1;stroke:none;stroke-width:0.5;stroke-linecap:butt;stroke-linejoin:miter;stroke-miterlimit:4;stroke-dasharray:none;stroke-dashoffset:0;stroke-opacity:1"
       d="m 39.335938,234.64453 c -8.585536,1.01914 -17.66164,2.67038 -24.494141,8.33203 -2.160608,2.1156 -0.727844,5.57505 -0.462891,7.70703 2.53937,1.59841 5.944457,0.64107 8.599116,2.17397 5.265751,1.19072 10.412067,3.29552 15.78565,3.79478 3.980648,-0.49803 4.167652,-5.35384 4.592646,-8.41326 -0.01676,-3.38597 1.71523,-6.68297 0.983526,-10.034 -0.620933,-2.23677 -2.869533,-3.30045 -5.003906,-3.56055 z m 0.476562,2.11133 c 3.203951,0.38715 3.094191,4.07427 2.152344,6.39062 -0.748529,3.59707 -0.332638,7.6547 -2.167969,10.9043 -2.363659,1.62832 -5.346452,-0.69089 -7.871094,-0.86133 -4.212164,-1.05285 -8.36929,-2.42176 -12.564453,-3.38476 -1.317102,0.0471 -2.438215,-0.84932 -3.43164,-1.47461 -0.870865,-2.25981 0.144695,-4.66655 2.457031,-5.45117 6.381764,-4.09034 14.02905,-5.56642 21.425781,-6.12305 z"
       id="path831"
       inkscape:connector-curvature="0" />
    <path
       style="opacity:1;fill:#000000;fill-opacity:1;stroke:none;stroke-width:0.5;stroke-linecap:butt;stroke-linejoin:miter;stroke-miterlimit:4;stroke-dasharray:none;stroke-dashoffset:0;stroke-opacity:1"
       d="m 62.308594,255.40625 c -4.638253,0.24379 -9.987233,1.01767 -12.635628,5.35832 -1.749412,1.8924 -2.567017,4.96905 -5.171013,5.69051 -1.337171,1.24059 -1.413866,4.10297 0.857422,4.30078 3.472497,0.10102 6.291129,-2.75063 9.171025,-4.34382 3.401751,-2.32105 6.905166,-4.71359 9.739131,-7.69524 1.175896,-1.59842 0.07934,-3.64659 -1.960937,-3.31055 z m 0.298828,1.98828 c -1.673606,2.294 -4.956777,4.05278 -7.253906,6.07227 -3.148209,1.81664 -6.072027,4.70238 -9.703125,5.28711 1.529341,-1.34187 3.677746,-3.38675 4.673828,-5.5918 2.018017,-3.41185 5.642619,-5.55301 9.607422,-5.49609 0.909581,0.0364 1.779181,-0.19173 2.675781,-0.27149 z"
       id="path833"
       inkscape:connector-curvature="0" />
    <path
       style="opacity:1;fill:#aa0000;fill-opacity:1;stroke:none;stroke-width:1.90894973;stroke-linecap:butt;stroke-linejoin:miter;stroke-miterlimit:4;stroke-dasharray:none;stroke-dashoffset:0;stroke-opacity:1"
       d="m 67.566358,187.6352 c -9.43648,-0.99375 -16.035619,-3.25293 -23.26038,-7.96304 -7.007182,-4.56826 -16.443555,-14.28197 -19.269027,-19.83533 -3.511863,-6.90246 -6.491456,-17.90149 -6.454338,-23.82591 0.0664,-10.59826 5.153167,-24.94286 12.052814,-33.98876 l 2.694975,-3.533298 10.127852,0.584819 c 17.021092,0.982859 45.437629,5.619189 64.112116,10.460289 29.33856,7.6056 29.36732,7.61107 37.93962,7.21928 11.31975,-0.51735 14.72375,-2.37789 18.09512,-9.89032 1.46139,-3.25639 4.43505,-12.001009 6.60813,-19.432485 9.50078,-32.490527 15.05711,-41.844754 31.11471,-52.382455 11.71966,-7.690952 19.19267,-9.621685 48.73283,-12.590636 23.93855,-2.40596 45.61058,-0.839778 65.48386,4.732352 12.14546,3.405378 17.5623,5.919748 22.23306,10.320062 7.19772,6.780971 8.2852,14.705229 3.22808,23.522555 -6.03123,10.515734 -18.17126,17.375131 -41.44753,23.418791 -8.61155,2.235981 -19.47368,5.70113 -24.13808,7.70033 -12.97897,5.56291 -22.15363,7.608474 -38.49138,8.581966 -16.94183,1.0095 -27.52888,3.01598 -38.89087,7.37069 -7.01956,2.69039 -9.08351,4.10528 -15.71058,10.77001 -4.7013,4.72803 -10.03132,11.58891 -13.88794,17.87673 -9.27739,15.12587 -28.68669,33.26929 -43.63754,40.7915 -18.14816,9.13086 -36.178699,12.31034 -57.235502,10.09286 z M 269.90488,64.228541 c 5.27559,-1.686848 9.57146,-2.236004 18.03662,-2.305684 17.44876,-0.143629 26.76904,-4.53562 26.76904,-12.614355 0,-6.752814 -6.26096,-10.221613 -22.12038,-12.255503 -12.68543,-1.626839 -31.65876,0.19372 -39.71968,3.811245 -8.18117,3.67149 -10.89092,7.116542 -10.89092,13.846197 0,6.351704 1.26706,8.317887 6.57935,10.209563 5.84538,2.081508 13.44329,1.835388 21.34597,-0.691463 z"
       id="path926"
       inkscape:connector-curvature="0"
       transform="matrix(0.26458333,0,0,0.26458333,0,227)" />
    <path
       style="opacity:1;fill:#b20000;fill-opacity:1;stroke:none;stroke-width:1.90894973;stroke-linecap:butt;stroke-linejoin:miter;stroke-miterlimit:4;stroke-dasharray:none;stroke-dashoffset:0;stroke-opacity:1"
       d="M 129.85262,102.87567 C 96.12502,94.006104 87.343031,91.594916 81.964776,89.727563 c -3.281584,-1.139379 -7.462291,-2.071599 -9.290459,-2.071599 -3.392588,0 -12.319664,-4.126615 -13.730613,-6.347088 -0.429536,-0.675981 -0.787935,-4.008808 -0.796443,-7.406282 -0.01954,-7.802331 1.350393,-9.632902 11.847826,-15.83167 20.281115,-11.976062 37.344953,-17.282545 70.756493,-22.003734 7.37037,-1.041464 8.92365,-0.973145 12.96496,0.570246 5.28189,2.017173 8.45141,6.304992 8.45719,11.441158 0.002,1.844763 -0.67449,7.072302 -1.50349,11.616754 -0.829,4.544452 -2.41184,14.747076 -3.51745,22.672497 -3.42976,24.586075 -5.59814,26.214955 -27.30017,20.507825 z"
       id="path928"
       inkscape:connector-curvature="0"
       transform="matrix(0.26458333,0,0,0.26458333,0,227)" />
    <path
       style="opacity:1;fill:#f5baba;fill-opacity:1;stroke:none;stroke-width:1.90894973;stroke-linecap:butt;stroke-linejoin:miter;stroke-miterlimit:4;stroke-dasharray:none;stroke-dashoffset:0;stroke-opacity:1"
       d="M 71.768852,205.80276 C 63.473645,204.51179 52.757229,201.1686 46.031691,197.77356 33.795451,191.59672 21.245069,179.58717 15.934408,168.97324 9.8730719,156.85901 7.6808783,139.44787 10.655655,127.04761 20.344164,86.661376 72.650329,36.48657 108.13434,33.540963 c 3.33351,-0.276722 9.47018,-1.807073 13.63706,-3.400782 9.9921,-3.82168 22.98222,-6.522936 43.94164,-9.137526 9.44493,-1.178211 24.90026,-3.458323 34.34519,-5.066915 27.44494,-4.674226 37.50316,-5.398894 65.59186,-4.725719 33.64994,0.806456 46.97753,2.664453 67.13234,9.358902 19.58735,6.505965 30.04892,13.729148 32.34203,22.33054 1.93883,7.272465 -2.01224,16.800538 -9.71539,23.428851 -15.45541,13.298885 -23.90704,18.130833 -46.41602,26.536882 -32.4011,12.100284 -46.39786,20.296134 -89.98382,52.690334 -13.75656,10.22422 -27.51205,20.18028 -30.56776,22.12456 -23.10426,14.70075 -61.90569,32.07052 -80.90239,36.2166 -10.702567,2.33588 -27.319077,3.22131 -35.770228,1.90607 z m 25.75889,-14.1663 c 9.410188,-1.51931 25.552408,-7.36303 33.684748,-12.19436 14.66681,-8.71339 31.76454,-24.92767 39.79944,-37.74298 12.67806,-20.22095 19.11355,-26.28305 32.37136,-30.4932 12.56194,-3.98915 20.99832,-5.42992 37.08104,-6.3327 15.9966,-0.89795 22.76127,-2.48472 38.8149,-9.104708 3.99946,-1.649246 14.09295,-4.831546 22.42996,-7.071777 19.64101,-5.277715 28.48041,-9.384671 36.35318,-16.890394 8.13912,-7.759661 10.34729,-12.137871 10.34729,-20.515869 0,-11.716635 -5.3241,-18.463728 -19.09261,-24.195572 -11.86896,-4.94106 -25.24732,-7.960245 -40.65633,-9.175192 -7.61816,-0.600665 -14.4711,-1.298488 -15.22875,-1.550717 -2.55892,-0.85189 -46.03791,3.65495 -53.79298,5.575943 -13.87116,3.436 -28.31039,12.352706 -36.23228,22.374648 -6.47444,8.190794 -10.9425,19.370539 -20.68084,51.746596 -5.87235,19.523212 -10.89966,20.585352 -48.53061,10.253302 C 93.687405,100.68879 65.395318,95.900484 42.474428,94.18106 l -9.091373,-0.681995 -4.37342,3.83643 c -5.072522,4.449695 -8.123817,10.036885 -12.31772,22.554855 -3.564154,10.63829 -3.798401,16.87538 -1.038999,27.66454 3.061574,11.97063 6.731643,18.49466 15.204758,27.02843 9.392981,9.46021 18.968757,14.73753 30.160168,16.62161 9.618517,1.6193 27.820722,1.83443 36.5099,0.43153 z m 86.421478,-31.11674 c 10.78791,-5.25143 27.43948,-16.3662 43.38312,-28.95784 14.0749,-11.11578 15.65737,-12.89963 15.65737,-17.6499 0,-4.8247 -2.76967,-5.52424 -16.27367,-4.11029 -22.75734,2.38283 -30.94434,7.38228 -43.47862,26.55053 -5.32358,8.14116 -9.84467,12.92305 -12.21824,12.92305 -2.25801,0 -5.05984,6.04078 -4.60558,9.92968 0.32629,2.79336 3.73489,5.18115 7.4341,5.20772 1.14055,0.008 5.68624,-1.74364 10.10152,-3.89295 z m -33.19845,-51.30335 c 7.06233,-3.3513 9.40118,-10.233159 12.47709,-36.712694 0.6131,-5.278047 1.76401,-12.162192 2.55758,-15.298099 1.71205,-6.765541 1.77931,-9.208696 0.39109,-14.207113 -1.42458,-5.12935 -6.1614,-9.554675 -12.12185,-11.324742 -4.50891,-1.339001 -6.20846,-1.293034 -17.87535,0.483467 -34.29076,5.221408 -50.027978,10.451457 -71.538229,23.774749 -8.113954,5.025723 -11.59782,9.935651 -11.497783,16.204199 0.104328,6.537394 2.412682,16.645168 3.998964,17.510578 0.822022,0.448462 5.358421,1.326327 10.080884,1.950809 4.722463,0.624484 10.85914,1.838748 13.637059,2.698366 4.369048,1.351988 52.970565,14.51874 58.588845,15.87244 4.11774,0.99216 7.87101,0.67601 11.3017,-0.95196 z"
       id="path930"
       inkscape:connector-curvature="0"
       transform="matrix(0.26458333,0,0,0.26458333,0,227)" />
    <path
       style="opacity:1;fill:#b20000;fill-opacity:1;stroke:none;stroke-width:1.90894973;stroke-linecap:butt;stroke-linejoin:miter;stroke-miterlimit:4;stroke-dasharray:none;stroke-dashoffset:0;stroke-opacity:1"
       d="m 170.78044,158.39356 c -0.33422,-0.54078 0.20716,-1.64567 1.20307,-2.45531 0.99591,-0.80964 3.25358,-2.65139 5.01704,-4.09278 1.76345,-1.44138 5.80864,-6.49168 8.98929,-11.22288 8.50305,-12.64822 15.85047,-19.85621 22.93254,-22.49736 6.34671,-2.36691 26.72834,-5.42459 28.7578,-4.31429 2.17319,1.18894 -1.11602,4.56837 -14.69676,15.0999 -28.15058,21.83006 -49.48564,33.87948 -52.20298,29.48272 z"
       id="path932"
       inkscape:connector-curvature="0"
       transform="matrix(0.26458333,0,0,0.26458333,0,227)" />
    <path
       style="opacity:1;fill:#d67474;fill-opacity:1;stroke:none;stroke-width:1.90894973;stroke-linecap:butt;stroke-linejoin:miter;stroke-miterlimit:4;stroke-dasharray:none;stroke-dashoffset:0;stroke-opacity:1"
       d="M 56.776312,253.36691 C 49.454402,252.60225 48.54631,252.24426 44.778534,248.63716 37.369159,241.54375 30.384816,229.4359 25.337745,214.93518 24.080809,211.32389 21.209,204.04715 18.955947,198.76466 14.840324,189.11522 8.6089505,169.62276 8.6636067,166.56904 c 0.016109,-0.90003 1.6639523,1.42823 3.6618753,5.17391 7.179897,13.46076 22.133938,26.74532 37.137207,32.99121 15.014713,6.25064 37.625596,7.91438 56.177911,4.13366 12.247,-2.49578 22.64959,-6.12617 43.75618,-15.27041 26.03644,-11.28005 37.22934,-18.1526 75.09628,-46.10986 44.8355,-33.10216 60.15621,-41.78822 92.23778,-52.294061 14.30693,-4.685129 34.31257,-17.526032 45.07199,-28.93008 l 5.17097,-5.480773 1.79941,9.807061 c 1.15689,6.305248 1.57153,11.731118 1.16123,15.195506 -1.68024,14.187006 -12.9817,27.141807 -31.58405,36.204647 -63.91583,31.139 -77.64289,39.84429 -117.07896,74.24807 -38.56323,33.6423 -58.65503,44.68541 -94.50068,51.94068 -23.11027,4.67758 -53.391897,6.92219 -69.994438,5.18831 z"
       id="path934"
       inkscape:connector-curvature="0"
       transform="matrix(0.26458333,0,0,0.26458333,0,227)" />
    <path
       style="opacity:1;fill:#f5e1e1;fill-opacity:1;stroke:none;stroke-width:1.90894973;stroke-linecap:butt;stroke-linejoin:miter;stroke-miterlimit:4;stroke-dasharray:none;stroke-dashoffset:0;stroke-opacity:1"
       d="m 248.04047,59.371692 c -4.60475,-4.604753 -0.57158,-11.63913 8.65193,-15.090087 7.96408,-2.979743 37.75785,-3.488965 45.52497,-0.778092 5.743,2.004417 9.00321,4.894969 8.11921,7.198621 -0.3181,0.828968 -2.53243,2.51978 -4.92074,3.75736 -3.61504,1.87326 -6.7111,2.366225 -18.4845,2.943166 -9.02274,0.442148 -15.74221,1.289644 -18.56228,2.341177 -6.52244,2.43205 -17.72956,2.226887 -20.32859,-0.372145 z m 22.27503,-5.102434 c 2.24755,-2.247549 1.96063,-5.100942 -0.83279,-8.282087 -1.83566,-2.090445 -3.50174,-2.180878 -8.44545,-0.458407 -4.70392,1.638928 -6.93587,3.514402 -6.93587,5.828117 0,4.83991 12.11117,7.015318 16.21411,2.912377 z"
       id="path936"
       inkscape:connector-curvature="0"
       transform="matrix(0.26458333,0,0,0.26458333,0,227)" />
  </g>
</svg>
