<?xml version="1.0" encoding="UTF-8" standalone="no"?>
<svg
   xmlns:dc="http://purl.org/dc/elements/1.1/"
   xmlns:cc="http://creativecommons.org/ns#"
   xmlns:rdf="http://www.w3.org/1999/02/22-rdf-syntax-ns#"
   xmlns:svg="http://www.w3.org/2000/svg"
   xmlns="http://www.w3.org/2000/svg"
   xmlns:sodipodi="http://sodipodi.sourceforge.net/DTD/sodipodi-0.dtd"
   xmlns:inkscape="http://www.inkscape.org/namespaces/inkscape"
   class="logo__img"
   version="1.1"
   id="Vrstva_1"
   x="0px"
   y="0px"
   width="294.2px"
   height="43.7px"
   viewBox="0 0 294.2 43.7"
   enable-background="new 0 0 294.2 43.7"
   xml:space="preserve"
   sodipodi:docname="it4i.svg"
   inkscape:export-filename="/works/TALKS/21-CESKE-BUDEJOVICE/TALK/media/logos/it4i.png"
   inkscape:export-xdpi="391.02975"
   inkscape:export-ydpi="391.02975"
   inkscape:version="0.92.5 (2060ec1f9f, 2020-04-08)"><metadata
   id="metadata88"><rdf:RDF><cc:Work
       rdf:about=""><dc:format>image/svg+xml</dc:format><dc:type
         rdf:resource="http://purl.org/dc/dcmitype/StillImage" /></cc:Work></rdf:RDF></metadata><defs
   id="defs86" /><sodipodi:namedview
   pagecolor="#ffffff"
   bordercolor="#666666"
   borderopacity="1"
   objecttolerance="10"
   gridtolerance="10"
   guidetolerance="10"
   inkscape:pageopacity="0"
   inkscape:pageshadow="2"
   inkscape:window-width="1920"
   inkscape:window-height="1052"
   id="namedview84"
   showgrid="false"
   inkscape:zoom="1.1454792"
   inkscape:cx="147.10001"
   inkscape:cy="21.85"
   inkscape:window-x="0"
   inkscape:window-y="1"
   inkscape:window-maximized="1"
   inkscape:current-layer="Vrstva_1" /> <g
   id="g10"
   transform="matrix(1.3333333,0,0,-1.3333333,0,63.666667)"> <g
   id="g12"
   transform="scale(0.1)"> <path
   id="path14"
   fill="#71777B"
   d="M1009.5,405.9v-8.5H967v8.5h16.4v46.8h-16.1v8.6h41.9v-8.6h-16.1v-46.8H1009.5" /> <path
   id="path16"
   fill="#71777B"
   d="M1048.7,452.7v-55.3h-9.9v55.3h-19.2v8.6h48.3v-8.6H1048.7" /> <path
   id="path18"
   fill="#71777B"
   d="M1077.1,418.9h20.3v32.5c-3.9-5.1-7.6-10.4-11-16C1082.9,429.9,1079.8,424.4,1077.1,418.9z M1106.7,410.8v-13.3h-9.3v13.3h-29.4l-1,6.3c3.5,7.2,7.8,14.7,13.1,22.7c5.2,8,10.5,15.2,15.8,21.5h10.7v-42.4h9.5v-8.2H1106.7" /> <path
   id="path20"
   fill="#71777B"
   d="M1167,405.9v-8.5h-42.5v8.5h16.4v46.8h-16.1v8.6h41.9v-8.6h-16.1v-46.8H1167" /> <path
   id="path22"
   fill="#71777B"
   d="M1220.9,397.5h-12.1l-21,50.9v-50.9h-8.8v63.8h12l21.1-51v51h8.8V397.5" /> <path
   id="path24"
   fill="#71777B"
   d="M1277,397.5h-12.1l-21,50.9v-50.9h-8.8v63.8h12l21.1-51v51h8.8V397.5" /> <path
   id="path26"
   fill="#71777B"
   d="M1299,429.7c0-8.4,1.1-14.6,3.3-18.5c2.2-3.9,5.6-5.9,10.3-5.9c4.7,0,8.2,1.9,10.4,5.8 c2.2,3.9,3.3,9.9,3.3,18c0,8.3-1.1,14.4-3.3,18.4c-2.2,4-5.7,6-10.4,6c-4.7,0-8.2-1.9-10.3-5.7 C1300.1,443.9,1299,437.9,1299,429.7z M1336.6,429.1c0-10.6-2.1-18.7-6.2-24.2c-4.1-5.6-10-8.4-17.8-8.4c-8,0-13.9,2.8-17.9,8.3 s-6,13.8-6,24.9c0,10.5,2.1,18.6,6.2,24.2c4.1,5.6,10,8.4,17.6,8.4c8,0,14-2.8,18-8.3C1334.6,448.5,1336.6,440.2,1336.6,429.1" /> <path
   id="path28"
   fill="#71777B"
   d="M1392.1,461.3l-17.8-63.8h-14.1l-17.8,63.8h10.3l14.7-56.1l14.7,56.1H1392.1" /> <path
   id="path30"
   fill="#71777B"
   d="M1418.9,454.2l-8.8-31.4h17.4L1418.9,454.2z M1444.7,397.5h-10.1l-4.7,16.9h-22l-4.7-16.9 h-9.8l18.6,63.8h14.1L1444.7,397.5" /> <path
   id="path32"
   fill="#71777B"
   d="M1474,452.7v-55.3h-9.9v55.3H1445v8.6h48.3v-8.6H1474" /> <path
   id="path34"
   fill="#71777B"
   d="M1545.9,405.9v-8.5h-42.5v8.5h16.4v46.8h-16.1v8.6h41.9v-8.6h-16.1v-46.8H1545.9" /> <path
   id="path36"
   fill="#71777B"
   d="M1564.6,429.7c0-8.4,1.1-14.6,3.3-18.5c2.2-3.9,5.6-5.9,10.3-5.9c4.7,0,8.2,1.9,10.4,5.8 c2.2,3.9,3.3,9.9,3.3,18c0,8.3-1.1,14.4-3.3,18.4c-2.2,4-5.7,6-10.4,6c-4.7,0-8.2-1.9-10.3-5.7 C1565.6,443.9,1564.6,437.9,1564.6,429.7z M1602.1,429.1c0-10.6-2.1-18.7-6.2-24.2c-4.1-5.6-10-8.4-17.8-8.4 c-7.9,0-13.9,2.8-17.9,8.3c-4,5.5-6,13.8-6,24.9c0,10.5,2.1,18.6,6.2,24.2c4.1,5.6,10,8.4,17.6,8.4c8,0,14-2.8,18-8.3 C1600.1,448.5,1602.1,440.2,1602.1,429.1" /> <path
   id="path38"
   fill="#71777B"
   d="M1655.7,397.5h-12.1l-21,50.9v-50.9h-8.8v63.8h12l21.1-51v51h8.8V397.5" /> <path
   id="path40"
   fill="#71777B"
   d="M1710.5,414.5c0-5.5-1.9-9.8-5.8-13.1c-3.9-3.3-9.1-4.9-15.7-4.9c-3.7,0-7.5,0.5-11.3,1.6 c-3.9,1.1-7.4,2.5-10.4,4.4l4.2,7.8c3.2-1.8,6.2-3.2,9.1-4c2.9-0.9,5.8-1.3,8.7-1.3c3.5,0,6.3,0.8,8.3,2.3c2,1.5,3,3.8,3,6.7 c0,2.1-0.8,4-2.4,5.6c-1.6,1.6-5.1,3.6-10.4,5.9c-3.6,1.6-6.3,2.9-8,3.8c-1.7,1-3.2,2-4.3,3.1c-1.9,1.7-3.3,3.6-4.2,5.7 c-0.9,2.1-1.4,4.4-1.4,6.9c0,5.1,1.8,9.3,5.5,12.5c3.7,3.2,8.5,4.8,14.5,4.8c3.5,0,6.9-0.5,10.3-1.4c3.3-0.9,6.6-2.3,9.8-4 l-3.9-7.8c-2.9,1.6-5.7,2.7-8.3,3.5c-2.6,0.8-5.2,1.1-7.7,1.1c-3.2,0-5.6-0.8-7.4-2.3c-1.8-1.5-2.7-3.5-2.7-6c0-2.1,0.8-4,2.4-5.6 c1.6-1.6,5.1-3.6,10.5-6c3.5-1.6,6.2-2.9,7.9-3.9c1.7-1,3.1-2,4.3-3c2-1.7,3.4-3.6,4.3-5.7C1710,419.3,1710.5,417,1710.5,414.5" /> <path
   id="path42"
   fill="#71777B"
   d="M1009.2,279.2h-12.1l-21,50.9v-50.9h-8.8v63.8h12l21.1-51v51h8.8V279.2" /> <path
   id="path44"
   fill="#71777B"
   d="M1044.5,336l-8.8-31.4h17.4L1044.5,336z M1070.3,279.2h-10.1l-4.7,16.9h-22l-4.7-16.9h-9.8 l18.6,63.8h14.1L1070.3,279.2" /> <path
   id="path46"
   fill="#71777B"
   d="M1099.6,334.5v-55.3h-9.9v55.3h-19.2v8.6h48.3v-8.6H1099.6" /> <path
   id="path48"
   fill="#71777B"
   d="M1171.5,287.7v-8.5H1129v8.5h16.4v46.8h-16.1v8.6h41.9v-8.6h-16.1v-46.8H1171.5" /> <path
   id="path50"
   fill="#71777B"
   d="M1190.1,311.4c0-8.4,1.1-14.6,3.3-18.5c2.2-3.9,5.6-5.9,10.3-5.9c4.7,0,8.2,1.9,10.4,5.8 c2.2,3.9,3.3,9.9,3.3,18c0,8.3-1.1,14.4-3.3,18.4c-2.2,4-5.7,6-10.4,6c-4.7,0-8.2-1.9-10.3-5.7 C1191.2,325.7,1190.1,319.7,1190.1,311.4z M1227.6,310.9c0-10.6-2.1-18.7-6.2-24.2c-4.1-5.6-10-8.4-17.8-8.4 c-7.9,0-13.9,2.8-17.9,8.3c-4,5.5-6,13.8-6,24.9c0,10.5,2.1,18.6,6.2,24.2c4.1,5.6,10,8.4,17.6,8.4c8,0,14-2.8,18-8.3 C1225.7,330.3,1227.6,322,1227.6,310.9" /> <path
   id="path52"
   fill="#71777B"
   d="M1281.3,279.2h-12.1l-21,50.9v-50.9h-8.8v63.8h12l21.1-51v51h8.8V279.2" /> <path
   id="path54"
   fill="#71777B"
   d="M1316.6,336l-8.8-31.4h17.4L1316.6,336z M1342.4,279.2h-10.1l-4.7,16.9h-22l-4.7-16.9h-9.8 l18.6,63.8h14.1L1342.4,279.2" /> <path
   id="path56"
   fill="#71777B"
   d="M1363.5,287.7h29.9v-8.5h-39.9v63.8h10V287.7" /> <path
   id="path58"
   fill="#71777B"
   d="M1478.5,296.3c0-5.5-1.9-9.8-5.8-13.1c-3.9-3.3-9.1-4.9-15.7-4.9c-3.7,0-7.5,0.5-11.3,1.6 c-3.9,1.1-7.4,2.5-10.4,4.4l4.2,7.8c3.2-1.8,6.2-3.2,9.1-4c2.9-0.9,5.8-1.3,8.7-1.3c3.5,0,6.3,0.8,8.3,2.3c2,1.5,3,3.8,3,6.7 c0,2.1-0.8,4-2.4,5.6c-1.6,1.6-5.1,3.6-10.4,5.9c-3.6,1.6-6.3,2.9-8,3.8c-1.7,1-3.2,2-4.3,3.1c-1.9,1.7-3.3,3.6-4.2,5.7 c-0.9,2.1-1.4,4.4-1.4,6.9c0,5.1,1.8,9.3,5.5,12.5c3.7,3.2,8.5,4.8,14.5,4.8c3.5,0,6.9-0.5,10.2-1.4c3.4-0.9,6.6-2.3,9.8-4 l-3.9-7.8c-2.9,1.6-5.7,2.7-8.3,3.5c-2.6,0.8-5.2,1.1-7.7,1.1c-3.2,0-5.6-0.8-7.4-2.3c-1.8-1.5-2.7-3.5-2.7-6c0-2.1,0.8-4,2.4-5.6 c1.6-1.6,5.1-3.6,10.5-6c3.5-1.6,6.2-2.9,7.9-3.9c1.7-1,3.1-2,4.3-3c2-1.7,3.4-3.6,4.3-5.7C1478,301,1478.5,298.8,1478.5,296.3" /> <path
   id="path60"
   fill="#71777B"
   d="M1511.9,287c3.7,0,6.6,1.1,8.7,3.2c2,2.1,3.1,5.1,3.1,9v43.9h9.7v-43.9c0-6.3-2-11.4-5.9-15.2 c-3.9-3.8-9.1-5.7-15.5-5.7c-6.5,0-11.7,1.9-15.7,5.7c-4,3.8-6,8.9-6,15.2v43.9h10v-43.9c0-3.9,1-6.9,3.1-9 C1505.3,288.1,1508.2,287,1511.9,287" /> <path
   id="path62"
   fill="#71777B"
   d="M1581.1,323.5c0,3.5-1.1,6.2-3.2,8.1c-2.1,1.9-5.1,2.9-8.8,2.9h-11.3V312h11.3 c3.9,0,6.8,1,8.9,3C1580.1,317,1581.1,319.8,1581.1,323.5z M1557.8,303.6v-24.3h-10v63.8h21.6c6.6,0,11.9-1.7,15.9-5.2 c3.9-3.4,5.9-8.2,5.9-14.2c0-6.4-2-11.3-5.9-14.8c-3.9-3.5-9.2-5.3-15.9-5.3H1557.8" /> <path
   id="path64"
   fill="#71777B"
   d="M1613.3,287.7h28.9v-8.5h-38.8v63.8h38.8v-8.6h-28.9v-18.6h24.5v-8.6h-24.5V287.7" /> <path
   id="path66"
   fill="#71777B"
   d="M1687.7,324.4c0,3.2-1,5.7-3,7.5c-2,1.8-4.8,2.7-8.3,2.7h-11.7v-20.6h11.7 c3.6,0,6.4,0.9,8.4,2.7C1686.7,318.4,1687.7,321,1687.7,324.4z M1664.6,305.3v-26.1h-10v63.8h21.8c6.5,0,11.7-1.6,15.5-4.9 c3.8-3.3,5.8-7.8,5.8-13.6c0-4.5-1.1-8.3-3.3-11.4c-2.2-3.1-5.4-5.2-9.5-6.5l15.2-27.5h-11.2l-13.9,26.1H1664.6" /> <path
   id="path68"
   fill="#71777B"
   d="M1734.9,278.2c-8.6,0-15.2,2.8-19.7,8.5c-4.5,5.6-6.7,13.9-6.7,24.7c0,10.2,2.3,18.2,7,23.9 c4.7,5.8,11.2,8.7,19.5,8.7c3.4,0,6.5-0.4,9.4-1.2c2.9-0.8,5.8-2.1,8.6-3.9l-4.5-7.8c-2.2,1.4-4.4,2.4-6.7,3.1 c-2.2,0.7-4.4,1-6.6,1c-5.4,0-9.6-2-12.3-6c-2.8-4-4.1-9.9-4.1-17.8c0-8.2,1.3-14.3,4-18.4c2.7-4,6.8-6.1,12.4-6.1 c2.6,0,4.9,0.3,7,1c2.1,0.7,4.5,1.8,7.3,3.5l4.2-7.3c-2.8-2-5.7-3.5-9-4.5C1741.5,278.7,1738.2,278.2,1734.9,278.2" /> <path
   id="path70"
   fill="#71777B"
   d="M1770.3,311.4c0-8.4,1.1-14.6,3.3-18.5c2.2-3.9,5.6-5.9,10.3-5.9c4.7,0,8.2,1.9,10.4,5.8 c2.2,3.9,3.3,9.9,3.3,18c0,8.3-1.1,14.4-3.3,18.4c-2.2,4-5.7,6-10.4,6c-4.7,0-8.2-1.9-10.3-5.7 C1771.3,325.7,1770.3,319.7,1770.3,311.4z M1807.8,310.9c0-10.6-2.1-18.7-6.2-24.2c-4.1-5.6-10-8.4-17.8-8.4 c-7.9,0-13.9,2.8-17.9,8.3s-6,13.8-6,24.9c0,10.5,2.1,18.6,6.2,24.2c4.1,5.6,10,8.4,17.6,8.4c8,0,14-2.8,18-8.3 C1805.8,330.3,1807.8,322,1807.8,310.9" /> <path
   id="path72"
   fill="#71777B"
   d="M1826.9,329.7v-50.4h-8.8v63.8h11.5l12.4-32.1l12.2,32.1h11.4v-63.8h-8.8v50.4l-11.4-29.3 h-7.2L1826.9,329.7" /> <path
   id="path74"
   fill="#71777B"
   d="M1912.5,323.5c0,3.5-1.1,6.2-3.2,8.1c-2.1,1.9-5.1,2.9-8.8,2.9h-11.3V312h11.3 c3.9,0,6.8,1,8.9,3C1911.5,317,1912.5,319.8,1912.5,323.5z M1889.2,303.6v-24.3h-9.9v63.8h21.6c6.6,0,11.9-1.7,15.9-5.2 c3.9-3.4,5.9-8.2,5.9-14.2c0-6.4-2-11.3-5.9-14.8c-3.9-3.5-9.2-5.3-15.9-5.3H1889.2" /> <path
   id="path76"
   fill="#71777B"
   d="M1954.8,287c3.7,0,6.6,1.1,8.7,3.2c2,2.1,3.1,5.1,3.1,9v43.9h9.7v-43.9c0-6.3-2-11.4-5.9-15.2 c-3.9-3.8-9.1-5.7-15.5-5.7c-6.5,0-11.7,1.9-15.7,5.7c-4,3.8-6,8.9-6,15.2v43.9h10v-43.9c0-3.9,1-6.9,3.1-9 C1948.1,288.1,1951,287,1954.8,287" /> <path
   id="path78"
   fill="#71777B"
   d="M2015.4,334.5v-55.3h-9.9v55.3h-19.2v8.6h48.3v-8.6H2015.4" /> <path
   id="path80"
   fill="#71777B"
   d="M2087.4,287.7v-8.5h-42.5v8.5h16.4v46.8h-16.1v8.6h41.9v-8.6H2071v-46.8H2087.4" /> <path
   id="path82"
   fill="#71777B"
   d="M2141.3,279.2h-12.1l-21,50.9v-50.9h-8.8v63.8h12l21.1-51v51h8.8V279.2" /> <path
   id="path84"
   fill="#71777B"
   d="M2180.1,278.2c-8.7,0-15.4,2.8-20,8.4c-4.6,5.6-6.8,13.9-6.8,24.8c0,10.3,2.3,18.3,7,24 c4.7,5.7,11.2,8.6,19.6,8.6c3.3,0,6.3-0.4,9.2-1.1c2.8-0.7,5.6-1.9,8.3-3.4l-4.3-8c-2,1.2-4.2,2.1-6.3,2.7 c-2.2,0.6-4.4,0.9-6.6,0.9c-5.6,0-9.7-2-12.5-5.9c-2.7-3.9-4.1-9.9-4.1-17.9c0-8.2,1.4-14.3,4.1-18.4c2.8-4,7-6.1,12.6-6.1 c1.7,0,3.3,0.1,4.7,0.4c1.4,0.3,2.9,0.7,4.3,1.3v21.6h9.5V284c-2.6-1.8-5.5-3.2-8.8-4.2C2186.6,278.7,2183.3,278.2,2180.1,278.2" /> <path
   id="path86"
   fill="#71777B"
   d="M993.1,160c-8.6,0-15.2,2.8-19.7,8.5c-4.5,5.6-6.7,13.9-6.7,24.7c0,10.2,2.3,18.2,7,23.9 c4.7,5.8,11.2,8.7,19.5,8.7c3.4,0,6.5-0.4,9.4-1.2c2.9-0.8,5.7-2.1,8.6-3.9l-4.5-7.8c-2.2,1.4-4.4,2.4-6.7,3.1 c-2.2,0.7-4.4,1-6.6,1c-5.4,0-9.6-2-12.3-6c-2.8-4-4.1-9.9-4.1-17.8c0-8.2,1.3-14.3,4-18.4c2.7-4,6.8-6.1,12.4-6.1 c2.6,0,4.9,0.3,7,1c2.1,0.7,4.5,1.8,7.3,3.5l4.2-7.3c-2.8-2-5.7-3.5-9-4.5C999.8,160.5,996.5,160,993.1,160" /> <path
   id="path88"
   fill="#71777B"
   d="M1034,169.5h28.9V161H1024v63.9h38.8v-8.6H1034v-18.6h24.5v-8.6H1034V169.5" /> <path
   id="path90"
   fill="#71777B"
   d="M1117.1,161h-12.1l-21,50.9V161h-8.8v63.9h12l21.1-51v51h8.8V161" /> <path
   id="path92"
   fill="#71777B"
   d="M1156.6,216.3V161h-9.9v55.3h-19.2v8.6h48.3v-8.6H1156.6" /> <path
   id="path94"
   fill="#71777B"
   d="M1197.7,169.5h28.9V161h-38.8v63.9h38.8v-8.6h-28.9v-18.6h24.5v-8.6h-24.5L1197.7,169.5" /> <path
   id="path96"
   fill="#71777B"
   d="M1272.1,206.1c0,3.2-1,5.7-3,7.5c-2,1.8-4.8,2.7-8.3,2.7H1249v-20.6h11.7 c3.6,0,6.4,0.9,8.4,2.7C1271.1,200.2,1272.1,202.8,1272.1,206.1z M1249,187.1V161h-10v63.9h21.8c6.5,0,11.7-1.6,15.5-4.9 c3.8-3.3,5.8-7.8,5.8-13.6c0-4.5-1.1-8.3-3.3-11.4c-2.2-3.1-5.4-5.2-9.5-6.5l15.2-27.5h-11.2l-13.9,26.1H1249" /> <path
   id="path98"
   fill="#71777B"
   d="M899.9,160.3h-10.1v300.9h10.1V160.3" /> <path
   id="path100"
   fill="#3BAE9A"
   d="M12.5,225.8H2.4v118.4h10.1V225.8" /> <path
   id="path102"
   fill="#3BAE9A"
   d="M129.4,193.3h-10.1v118.4h10.1V193.3" /> <path
   id="path104"
   fill="#3BAE9A"
   d="M168.3,225.8h-10.1v118.4h10.1V225.8" /> <path
   id="path106"
   fill="#3BAE9A"
   d="M90.4,160.8H80.3v118.4h10.1V160.8" /> <path
   id="path108"
   fill="#3BAE9A"
   d="M51.5,193.4H41.3v118.4h10.1V193.4" /> <path
   id="path110"
   fill="#3BAE9A"
   d="M51.1,461.3L34,397.5H17.1L0,461.3h12.3L25.8,407l13.4,54.3H51.1" /> <path
   id="path112"
   fill="#3BAE9A"
   d="M108.4,415c0-5.7-2-10.1-5.9-13.5c-3.9-3.4-9.3-5-16.1-5c-3.7,0-7.6,0.5-11.6,1.6 c-4,1.1-7.6,2.5-10.8,4.4l4.7,9.7c3.2-1.8,6.3-3.2,9.2-4.1c2.9-0.9,5.8-1.3,8.7-1.3c3.1,0,5.5,0.6,7.2,1.9 c1.7,1.3,2.6,3.1,2.6,5.6c0,1.8-0.7,3.5-2.2,4.9c-1.4,1.4-4.7,3.2-9.7,5.3c-3.7,1.6-6.5,2.9-8.2,3.9c-1.7,1-3.2,2.1-4.5,3.2 c-1.9,1.7-3.3,3.6-4.2,5.8c-0.9,2.1-1.4,4.5-1.4,7.1c0,5.3,1.9,9.6,5.7,13c3.8,3.3,8.8,5,15.1,5c3.6,0,7.2-0.5,10.6-1.4 c3.5-1,6.8-2.3,9.9-4.1l-4.3-9.6c-3,1.6-5.9,2.8-8.5,3.5c-2.7,0.8-5.2,1.2-7.7,1.2c-2.7,0-4.8-0.6-6.4-1.9 c-1.5-1.2-2.3-2.9-2.3-4.9c0-1.8,0.7-3.5,2.2-4.9c1.5-1.4,4.7-3.3,9.8-5.5c3.6-1.6,6.3-3,8-3.9c1.7-1,3.2-2,4.3-3.2 c2-1.6,3.4-3.5,4.3-5.6C107.9,419.9,108.4,417.6,108.4,415" /> <path
   id="path114"
   fill="#3BAE9A"
   d="M159,416.7c0,3.1-1,5.3-2.9,6.8c-1.9,1.4-5,2.1-9.2,2.1h-8.3v-18.2h8.9 c3.9,0,6.8,0.8,8.7,2.3C158.1,411.2,159,413.5,159,416.7z M156.5,443.7c0,2.6-0.8,4.6-2.5,5.8c-1.7,1.2-4.3,1.9-7.7,1.9h-7.6 v-16.3h7.6c3.4,0,6,0.7,7.7,2.2C155.6,438.7,156.5,440.9,156.5,443.7z M126.7,461.3h21c6.6,0,11.7-1.4,15.5-4.1 c3.7-2.8,5.6-6.6,5.6-11.6c0-3.3-0.8-6.3-2.5-8.8c-1.7-2.5-4.1-4.4-7.1-5.7c4-1.2,7-3,9.1-5.6c2.1-2.5,3.1-5.7,3.1-9.4 c0-5.8-2-10.3-6-13.6c-4-3.3-9.3-5-16-5h-22.7L126.7,461.3" /> <path
   id="path116"
   fill="#3BAE9A"
   d="M270,452.9v-55.3h-9.9v55.3h-19.2v8.6h48.3v-8.6H270" /> <path
   id="path118"
   fill="#3BAE9A"
   d="M315.9,406.1h28.9v-8.5H306v63.9h38.8v-8.6h-28.9v-18.6h24.5v-8.6h-24.5V406.1" /> <path
   id="path120"
   fill="#3BAE9A"
   d="M387,396.7c-8.6,0-15.2,2.8-19.7,8.5c-4.5,5.6-6.7,13.9-6.7,24.7c0,10.2,2.3,18.2,7,23.9 c4.7,5.8,11.2,8.7,19.5,8.7c3.3,0,6.5-0.4,9.4-1.2c2.9-0.8,5.7-2.1,8.6-3.9l-4.5-7.8c-2.2,1.4-4.4,2.4-6.7,3.1 c-2.2,0.7-4.4,1-6.6,1c-5.5,0-9.6-2-12.3-6c-2.8-4-4.1-9.9-4.1-17.8c0-8.2,1.3-14.3,4-18.4c2.7-4,6.8-6.1,12.4-6.1 c2.6,0,4.9,0.3,7,1c2.1,0.7,4.5,1.8,7.3,3.5l4.2-7.3c-2.8-2-5.7-3.5-9-4.5C393.7,397.2,390.4,396.7,387,396.7" /> <path
   id="path122"
   fill="#3BAE9A"
   d="M433.1,426.6v-29h-10v63.9h10v-26.3h23.4v26.3h9.9v-63.9h-9.9v29H433.1" /> <path
   id="path124"
   fill="#3BAE9A"
   d="M529.2,397.7h-12.1l-21,50.9v-50.9h-8.8v63.9h12l21.1-51v51h8.8V397.7" /> <path
   id="path126"
   fill="#3BAE9A"
   d="M589.5,406.1v-8.5H547v8.5h16.4v46.8h-16.1v8.6h41.9v-8.6h-16.1v-46.8H589.5" /> <path
   id="path128"
   fill="#3BAE9A"
   d="M630,396.7c-8.6,0-15.2,2.8-19.7,8.5c-4.5,5.6-6.8,13.9-6.8,24.7c0,10.2,2.4,18.2,7,23.9 c4.7,5.8,11.2,8.7,19.5,8.7c3.4,0,6.5-0.4,9.4-1.2c2.9-0.8,5.7-2.1,8.6-3.9l-4.5-7.8c-2.2,1.4-4.4,2.4-6.7,3.1 c-2.2,0.7-4.4,1-6.5,1c-5.5,0-9.6-2-12.3-6c-2.8-4-4.1-9.9-4.1-17.8c0-8.2,1.3-14.3,4-18.4c2.7-4,6.8-6.1,12.4-6.1 c2.6,0,4.9,0.3,7,1c2.1,0.7,4.5,1.8,7.3,3.5l4.2-7.3c-2.8-2-5.7-3.5-9-4.5C636.7,397.2,633.4,396.7,630,396.7" /> <path
   id="path130"
   fill="#3BAE9A"
   d="M686.3,454.4l-8.8-31.4h17.4L686.3,454.4z M712.1,397.7h-10.1l-4.7,16.9h-22l-4.7-16.9h-9.8 l18.6,63.9h14.1L712.1,397.7" /> <path
   id="path132"
   fill="#3BAE9A"
   d="M739.1,406.1h30v-8.5h-39.9v63.9h10V406.1" /> <path
   id="path134"
   fill="#3BAE9A"
   d="M265.3,287.2c3.7,0,6.6,1.1,8.7,3.2c2,2.1,3.1,5.1,3.1,9v43.9h9.7v-43.9 c0-6.3-2-11.4-5.9-15.2c-3.9-3.8-9.1-5.7-15.5-5.7c-6.5,0-11.7,1.9-15.7,5.7c-4,3.8-6,8.9-6,15.2v43.9h10v-43.9c0-3.9,1-6.9,3.1-9 C258.6,288.3,261.5,287.2,265.3,287.2" /> <path
   id="path136"
   fill="#3BAE9A"
   d="M349.3,279.4h-12.1l-21,50.9v-50.9h-8.8v63.9h12l21.1-51v51h8.8V279.4" /> <path
   id="path138"
   fill="#3BAE9A"
   d="M409.7,287.9v-8.5h-42.5v8.5h16.4v46.8h-16.1v8.6h41.9v-8.6h-16.1v-46.8H409.7" /> <path
   id="path140"
   fill="#3BAE9A"
   d="M470.3,343.3l-17.8-63.9h-14.1l-17.8,63.9h10.3l14.7-56.1l14.7,56.1H470.3" /> <path
   id="path142"
   fill="#3BAE9A"
   d="M496.7,287.9h28.9v-8.5h-38.8v63.9h38.8v-8.6h-28.9v-18.6h24.5v-8.6h-24.5V287.9" /> <path
   id="path144"
   fill="#3BAE9A"
   d="M578,324.6c0,3.2-1,5.7-3,7.5c-2,1.8-4.8,2.7-8.3,2.7H555v-20.6h11.7c3.6,0,6.4,0.9,8.4,2.7 C577,318.6,578,321.2,578,324.6z M555,305.5v-26.1h-10v63.9h21.8c6.5,0,11.7-1.6,15.5-4.9c3.8-3.3,5.8-7.8,5.8-13.6 c0-4.5-1.1-8.3-3.3-11.4c-2.2-3.1-5.4-5.2-9.5-6.5l15.2-27.5h-11.2l-13.9,26.1H555" /> <path
   id="path146"
   fill="#3BAE9A"
   d="M647.3,296.5c0-5.5-1.9-9.8-5.8-13.1c-3.9-3.3-9.1-4.9-15.7-4.9c-3.7,0-7.5,0.5-11.3,1.6 c-3.9,1.1-7.4,2.5-10.4,4.4l4.2,7.8c3.2-1.8,6.2-3.2,9.1-4c2.9-0.9,5.8-1.3,8.7-1.3c3.5,0,6.3,0.8,8.3,2.3c2,1.5,3,3.8,3,6.6 c0,2.1-0.8,4-2.4,5.6c-1.6,1.6-5.1,3.6-10.4,5.9c-3.6,1.6-6.3,2.9-8,3.8c-1.7,1-3.2,2-4.3,3.1c-1.9,1.7-3.3,3.6-4.2,5.7 c-0.9,2.1-1.4,4.4-1.4,6.9c0,5.1,1.8,9.3,5.5,12.5c3.7,3.2,8.5,4.8,14.5,4.8c3.5,0,6.9-0.5,10.2-1.4c3.3-0.9,6.6-2.3,9.8-4 l-3.9-7.8c-2.9,1.6-5.7,2.7-8.3,3.5c-2.6,0.8-5.2,1.1-7.7,1.1c-3.2,0-5.6-0.8-7.4-2.3c-1.8-1.5-2.7-3.5-2.7-6c0-2.1,0.8-4,2.4-5.6 c1.6-1.6,5.1-3.6,10.5-6c3.5-1.6,6.2-2.9,7.9-3.9c1.7-1,3.1-2,4.3-3c2-1.7,3.4-3.6,4.3-5.7C646.8,301.2,647.3,299,647.3,296.5" /> <path
   id="path148"
   fill="#3BAE9A"
   d="M705.1,287.9v-8.5h-42.5v8.5H679v46.8h-16.1v8.6h41.9v-8.6h-16.1v-46.8H705.1" /> <path
   id="path150"
   fill="#3BAE9A"
   d="M745.3,334.7v-55.3h-9.9v55.3h-19.2v8.6h48.3v-8.6H745.3" /> <path
   id="path152"
   fill="#3BAE9A"
   d="M803.3,304.2v-24.7h-10v24.7l-20.4,39.1h10.6l15-29.9l14.9,29.9h10L803.3,304.2" /> <path
   id="path154"
   fill="#3BAE9A"
   d="M251.5,193.4c0-8.4,1.1-14.6,3.3-18.5c2.2-3.9,5.6-5.9,10.3-5.9c4.7,0,8.2,1.9,10.4,5.8 c2.2,3.9,3.3,9.9,3.3,18c0,8.3-1.1,14.4-3.3,18.4c-2.2,4-5.7,6-10.4,6c-4.7,0-8.2-1.9-10.3-5.7 C252.5,207.6,251.5,201.6,251.5,193.4z M289,192.8c0-10.6-2.1-18.7-6.2-24.2c-4.1-5.6-10-8.4-17.8-8.4c-7.9,0-13.9,2.8-17.9,8.3 c-4,5.5-6,13.8-6,24.9c0,10.5,2.1,18.6,6.2,24.2c4.1,5.6,10,8.4,17.6,8.4c8,0,14-2.8,18-8.3C287,212.2,289,203.9,289,192.8" /> <path
   id="path156"
   fill="#3BAE9A"
   d="M319.1,188.3v-27.1h-9.9V225h38.7v-8.6h-28.9v-19.6h24.5v-8.6H319.1" /> <path
   id="path158"
   fill="#3BAE9A"
   d="M404.5,193.4c0-8.4,1.1-14.6,3.3-18.5c2.2-3.9,5.6-5.9,10.3-5.9c4.7,0,8.2,1.9,10.4,5.8 c2.2,3.9,3.3,9.9,3.3,18c0,8.3-1.1,14.4-3.3,18.4c-2.2,4-5.7,6-10.4,6c-4.7,0-8.2-1.9-10.3-5.7 C405.6,207.6,404.5,201.6,404.5,193.4z M442,192.8c0-10.6-2.1-18.7-6.2-24.2c-4.1-5.6-10-8.4-17.8-8.4c-7.9,0-13.9,2.8-17.9,8.3 c-4,5.5-6,13.8-6,24.9c0,10.5,2.1,18.6,6.2,24.2c4.1,5.6,10,8.4,17.6,8.4c8,0,14-2.8,18-8.3C440.1,212.2,442,203.9,442,192.8" /> <path
   id="path160"
   fill="#3BAE9A"
   d="M498.6,178.2c0-5.5-1.9-9.8-5.8-13.1c-3.9-3.3-9.1-4.9-15.7-4.9c-3.7,0-7.5,0.5-11.3,1.6 c-3.9,1.1-7.4,2.5-10.4,4.4l4.2,7.8c3.1-1.8,6.2-3.2,9.1-4c2.9-0.9,5.8-1.3,8.7-1.3c3.5,0,6.3,0.8,8.3,2.3c2,1.5,3,3.8,3,6.7 c0,2.1-0.8,4-2.4,5.6c-1.6,1.6-5.1,3.6-10.4,5.9c-3.6,1.6-6.3,2.9-8,3.8c-1.7,1-3.2,2-4.3,3.1c-1.9,1.7-3.3,3.6-4.2,5.7 c-0.9,2.1-1.4,4.4-1.4,6.9c0,5.1,1.8,9.3,5.5,12.5c3.7,3.2,8.5,4.8,14.5,4.8c3.5,0,6.9-0.5,10.2-1.4c3.3-0.9,6.6-2.3,9.8-4 l-3.9-7.8c-2.9,1.6-5.7,2.7-8.3,3.5c-2.6,0.8-5.2,1.1-7.7,1.1c-3.2,0-5.6-0.8-7.4-2.3c-1.8-1.5-2.7-3.5-2.7-6c0-2.1,0.8-4,2.4-5.6 c1.6-1.6,5.1-3.6,10.5-6c3.5-1.6,6.2-2.9,7.9-3.9c1.7-1,3.2-2,4.3-3c2-1.7,3.4-3.6,4.3-5.7C498.1,183,498.6,180.7,498.6,178.2" /> <path
   id="path162"
   fill="#3BAE9A"
   d="M538.7,216.5v-55.3h-9.9v55.3h-19.2v8.6h48.3v-8.6H538.7" /> <path
   id="path164"
   fill="#3BAE9A"
   d="M607.5,206.3c0,3.2-1,5.7-3,7.5c-2,1.8-4.8,2.7-8.3,2.7h-11.7v-20.6h11.7 c3.6,0,6.4,0.9,8.4,2.7C606.5,200.4,607.5,203,607.5,206.3z M584.5,187.3v-26.1h-9.9V225h21.8c6.5,0,11.7-1.6,15.5-4.9 c3.8-3.3,5.8-7.8,5.8-13.6c0-4.5-1.1-8.3-3.3-11.4c-2.2-3.1-5.4-5.2-9.5-6.5l15.2-27.5h-11.2l-13.9,26.1H584.5" /> <path
   id="path166"
   fill="#3BAE9A"
   d="M658.2,217.9l-8.8-31.4h17.4L658.2,217.9z M684.1,161.2h-10.1l-4.7,16.9h-22l-4.7-16.9h-9.8 l18.6,63.8h14.1L684.1,161.2" /> <path
   id="path168"
   fill="#3BAE9A"
   d="M739,225l-17.8-63.8h-14.1L689.2,225h10.3l14.7-56.1L729,225H739" /> <path
   id="path170"
   fill="#3BAE9A"
   d="M769.8,217.9l-8.8-31.4h17.4L769.8,217.9z M795.6,161.2h-10.1l-4.7,16.9h-22l-4.7-16.9h-9.8 l18.6,63.8H777L795.6,161.2" /> </g> </g> </svg>